<svg xmlns="http://www.w3.org/2000/svg" width="1342.604" height="827.043" viewBox="0 0 1342.604 827.043"><defs><style>.a{fill:#6c63ff;opacity:0.05;}</style></defs><path class="a" d="M781.817,615.832c-54.477-34.454-125.137-32.212-187.049-14.3s-118.8,49.851-179.1,72.542C365.015,693.1,72.523,622.371,41.995,653.7-17.662,591.66-13.088,479.755,51.44,422.83c32.818-28.965,75.8-43.177,113.283-65.79s72.155-60.172,68.973-103.826c-2.951-40.407-37.3-71.421-72.851-90.877C133.361,147.3,99.513,130.885,96.2,99.742c-3.2-30.138,25.254-53.756,52.428-67.182,88.648-43.809,197.859-43.383,286.159,1.108,31.5,15.874,60.469,36.98,93.505,49.349C615.048,115.5,710.628,82.8,802.484,70.842A604.722,604.722,0,0,1,1035.7,86.188c45.483,12.137,91.147,30.692,123.1,65.262,23.038,24.932,37.366,56.474,50.882,87.617q21.556,49.838,41.438,100.373c7.963,20.229,15.8,40.845,17.845,62.491,3.724,39.209-11.957,77.966-33.333,111.067-50.766,78.585-136.206,133.835-228.719,147.866s-190.425-13.4-262.193-73.353" transform="translate(0 154.715) rotate(-7)"/></svg>