<svg xmlns="http://www.w3.org/2000/svg" width="1571.062" height="967.773" viewBox="0 0 1571.062 967.773"><defs><style>.a{fill:#6c63ff;opacity:0.05;}</style></defs><path class="a" d="M1037.378,223.059C973.632,263.376,890.947,260.753,818.5,239.8S679.488,181.461,608.926,154.91c-59.272-22.271-401.535,60.5-437.258,23.837-69.808,72.6-64.456,203.544,11.052,270.156,38.4,33.894,88.7,50.524,132.56,76.985S399.713,596.3,395.989,647.38c-3.453,47.283-43.649,83.574-85.247,106.341-32.16,17.6-71.768,36.8-75.643,73.246-3.739,35.266,29.552,62.9,61.35,78.613,103.732,51.263,231.527,50.765,334.852-1.3,36.864-18.575,70.758-43.272,109.416-57.746,101.516-38.01,213.359.256,320.845,14.248a707.623,707.623,0,0,0,272.9-17.957c53.223-14.2,106.657-35.914,144.048-76.367,26.958-29.175,43.724-66.084,59.54-102.526q25.224-58.319,48.489-117.452c9.318-23.671,18.485-47.8,20.882-73.125,4.357-45.88-13.992-91.233-39-129.967-59.4-91.957-159.382-156.608-267.638-173.028s-222.828,15.68-306.808,85.835" transform="translate(1577.67 1132.621) rotate(-173)"/></svg>